Coordinates																															
version=1																															
nRows=15																															
nColumns=32																															
inDegrees=yes																															
																															
"Units are S.I. units (second, meters, Newtons, ...)"																															
"If the header above contains a line with 'inDegrees', this indicates whether rotational values are in degrees (yes) or radians (no)."																															
																															
endheader																															
time	pelvis_tilt	pelvis_list	pelvis_rotation	pelvis_tx	pelvis_ty	pelvis_tz	hip_flexion_r	hip_adduction_r	hip_rotation_r	knee_angle_r	ankle_angle_r	subtalar_angle_r	mtp_angle_r	hip_flexion_l	hip_adduction_l	hip_rotation_l	knee_angle_l	ankle_angle_l	subtalar_angle_l	mtp_angle_l	lumbar_extension	lumbar_bending	lumbar_rotation	arm_flex_r	arm_add_r	arm_rot_r	elbow_flex_r	arm_flex_l	arm_add_l	arm_rot_l	elbow_flex_l
0	-7.690595851	3.589757114	-2.606572514	0.634472294	0.911415642	0.486036864	38.69548417	-1.142134426	-8.054839032	8.774914796	7.654363355	4.60329268	-0.979945018	-8.552873726	4.544250074	1.536620749	6.334063743	21.26357612	1.571773616	-19.0492798	-4.550347433	-1.08328414	-6.07287524	-2.495298741	-9.819576737	-6.470664835	29.87038352	21.42481455	-25.67965038	5.950975059	71.85482608
0.010642857	-7.405966434	2.993095467	-2.489451458	0.637800669	0.909938702	0.487310351	38.32918188	-0.577452864	-7.969523916	10.31261569	8.15160461	3.970376276	-1.523783367	-8.827749116	3.764823395	1.015138354	8.676246408	20.61255082	1.584136045	-21.57414167	-4.507135975	-0.640044162	-6.146698293	-2.816111811	-9.793993787	-6.677030235	30.17887588	20.97627252	-25.68398811	6.005881916	71.45948844
0.021285714	-7.118516082	2.393808426	-2.374745194	0.641160636	0.908483658	0.488591174	37.95681665	-0.009365159	-7.881766844	11.86664902	8.651316454	3.334108335	-2.055959691	-9.086346202	2.980080554	0.483846163	11.05589457	19.93978177	1.576331012	-24.06761838	-4.462791019	-0.193198138	-6.21790571	-3.135224844	-9.768531821	-6.880595228	30.48075948	20.51152319	-25.68020426	6.061507796	71.03779902
0.031928571	-6.823948153	1.786729956	-2.267274538	0.644600582	0.907088202	0.489893847	37.56822812	0.568865498	-7.790777174	13.45870528	9.15302042	2.692499232	-2.552036526	-9.300811616	2.179304877	-0.074396268	13.53397119	19.20355564	1.512857227	-26.47010324	-4.415629552	0.263873181	-6.281389242	-3.447562991	-9.743416204	-7.076367747	30.76572749	20.00494907	-25.65474871	6.117987886	70.54543777
0.042571429	-6.517897725	1.164443818	-2.173885557	0.648169595	0.90579896	0.491239067	37.15132996	1.16680174	-7.701315829	15.10489509	9.647991882	2.048850941	-2.974830705	-9.437352334	1.346735818	-0.68042913	16.17874524	18.34500624	1.348499274	-28.6977348	-4.364091613	0.739965485	-6.329998672	-3.743313616	-9.718965252	-7.257938216	31.02288417	19.42908162	-25.59172123	6.173834441	69.92986806
0.053214286	-6.19737972	0.51844188	-2.101948353	0.651899541	0.904661984	0.492649884	36.6948759	1.794931289	-7.625929843	16.80651982	10.11621041	1.413180748	-3.279173372	-9.46430372	0.463788636	-1.352329527	19.04506016	17.29618222	1.03686563	-30.65150394	-4.307543187	1.244310404	-6.356008384	-4.008127042	-9.695579645	-7.418781913	31.24415583	18.76353169	-25.47692843	6.225820614	69.14365734
0.063857143	-5.861349325	-0.159459986	-2.057432608	0.655795677	0.903717077	0.494147052	36.18989238	2.462358165	-7.584169164	18.54796616	10.52781356	0.800332049	-3.418743296	-9.357316507	-0.488121221	-2.099245964	22.16169885	15.988178	0.536168153	-32.22312488	-4.246811692	1.78486911	-6.352827066	-4.224676887	-9.67376735	-7.553222598	31.42584741	17.99994512	-25.30034922	6.270107351	68.15308216
0.0745	-5.510503342	-0.875443399	-2.042898181	0.659835073	0.902995299	0.495744125	35.62985612	3.174487581	-7.599050308	20.29998635	10.84969414	0.226568183	-3.354630687	-9.101302062	-1.52420995	-2.91635184	25.52761473	14.36031304	-0.18688088	-33.29940625	-4.184407177	2.366630235	-6.316660275	-4.375318874	-9.654189729	-7.656991821	31.56854873	17.14309956	-25.05705565	6.304204524	66.94202876
0.085142857	-5.146586271	-1.63189202	-2.055841369	0.663971095	0.902518712	0.497443093	35.00993791	3.931146056	-7.69161751	22.02606533	11.05607713	-0.293802915	-3.064353379	-8.689469252	-2.652706004	-3.781751407	29.11597237	12.370682	-1.153968818	-33.76747565	-4.124406495	2.990001511	-6.247776671	-4.445341924	-9.637707318	-7.727395222	31.67583221	16.2088331	-24.74686565	6.329171195	65.51185581
0.095785714	-4.771623834	-2.42586778	-2.087942209	0.668140995	0.90230133	0.499231658	34.32593919	4.725580876	-7.87527705	23.68916587	11.13907832	-0.750934091	-2.548614116	-8.120767655	-3.871645569	-4.656093144	32.88232259	10.00704963	-2.371814667	-33.52347218	-4.072018073	3.649590488	-6.150977442	-4.425965281	-9.62539742	-7.763203488	31.75245726	15.2202256	-24.37327955	6.351264427	63.8786758
0.106428571	-4.387492748	-3.248335436	-2.125775792	0.672273909	0.902350433	0.501083318	33.57355961	5.544784447	-8.151717831	25.25642668	11.11468349	-1.140514393	-1.832792825	-7.397125817	-5.166905885	-5.485717637	36.77312297	7.296300592	-3.827928881	-32.4867996	-4.032846305	4.33376644	-6.034865309	-4.316173201	-9.618515503	-7.764387535	31.80277437	14.20340579	-23.94222159	6.382236913	62.06939468
0.117071429	-3.995991853	-4.084341632	-2.153031107	0.676297677	0.902667836	0.502960417	32.74834447	6.371102232	-8.50939969	26.70097735	11.02191111	-1.463381304	-0.962406331	-6.521392319	-6.511887409	-6.209199033	40.73225289	4.310565908	-5.486220734	-30.61904377	-4.011947518	5.025165192	-5.909931381	-4.122984798	-9.618398707	-7.731794315	31.82970848	13.18385894	-23.46090646	6.438068951	60.11746478
0.127714286	-3.599282746	-4.913990698	-2.153561168	0.680144038	0.903251136	0.504818945	31.84631351	7.184414056	-8.924581703	28.00190189	10.91589208	-1.724277765	5.25E-03	-5.496373299	-7.868709194	-6.765704406	44.70468871	1.168021708	-7.28484804	-27.94254172	-4.012889624	5.701972849	-5.786064597	-3.860393465	-9.626345677	-7.666845475	31.83435438	12.18363485	-22.93695313	6.536691649	58.0590208
0.138357143	-3.200490239	-5.714067929	-2.114468534	0.683752089	0.904095147	0.506613727	30.8651566	7.964141516	-9.364762283	29.14368286	10.85615554	-1.930397229	1.010657213	-4.325146504	-9.19085306	-7.103404292	48.63709193	-1.974190211	-9.139276653	-24.55202145	-4.037057037	6.339836348	-5.670186369	-3.547251564	-9.643513171	-7.571314614	31.81614128	11.2197111	-22.37778523	6.695369275	55.92984046
0.149	-2.804257343	-6.460169134	-2.02860358	0.687070177	0.905193519	0.508303094	29.80573146	8.690719951	-9.793988899	30.11592693	10.89238503	-2.090086255	2.00072638	-3.012442201	-10.42716137	-7.186617967	52.47598055	-4.935614274	-10.95166542	-20.61479611	-4.08335081	6.914241913	-5.564523509	-3.204459455	-9.670856345	-7.447190623	31.77345752	10.3035258	-21.79029351	6.928261768	53.76328434
